<mxfile host="app.diagrams.net" agent="Mozilla/5.0 (X11; Ubuntu; Linux x86_64; rv:131.0) Gecko/20100101 Firefox/131.0" version="24.8.3">
  <diagram name="Page-1" id="7IZlaRfim9HSo66foFJ8">
    <mxGraphModel dx="1553" dy="904" grid="1" gridSize="10" guides="1" tooltips="1" connect="1" arrows="1" fold="1" page="1" pageScale="1" pageWidth="850" pageHeight="1100" math="0" shadow="0">
      <root>
        <mxCell id="0" />
        <mxCell id="1" parent="0" />
        <mxCell id="OnwZRqGxgUayh9ZLNMnh-13" value="" style="endArrow=none;dashed=1;html=1;rounded=0;" edge="1" parent="1">
          <mxGeometry width="50" height="50" relative="1" as="geometry">
            <mxPoint x="200" y="420" as="sourcePoint" />
            <mxPoint x="740" y="420" as="targetPoint" />
          </mxGeometry>
        </mxCell>
        <mxCell id="OnwZRqGxgUayh9ZLNMnh-18" value="" style="endArrow=none;dashed=1;html=1;rounded=0;" edge="1" parent="1">
          <mxGeometry width="50" height="50" relative="1" as="geometry">
            <mxPoint x="200" y="500" as="sourcePoint" />
            <mxPoint x="740" y="500" as="targetPoint" />
          </mxGeometry>
        </mxCell>
        <mxCell id="OnwZRqGxgUayh9ZLNMnh-43" style="edgeStyle=orthogonalEdgeStyle;rounded=0;orthogonalLoop=1;jettySize=auto;html=1;entryX=0.5;entryY=0;entryDx=0;entryDy=0;" edge="1" parent="1" source="OnwZRqGxgUayh9ZLNMnh-23" target="OnwZRqGxgUayh9ZLNMnh-31">
          <mxGeometry relative="1" as="geometry">
            <Array as="points">
              <mxPoint x="260" y="410" />
              <mxPoint x="290" y="410" />
            </Array>
          </mxGeometry>
        </mxCell>
        <mxCell id="OnwZRqGxgUayh9ZLNMnh-23" value="*" style="ellipse;whiteSpace=wrap;html=1;aspect=fixed;" vertex="1" parent="1">
          <mxGeometry x="240" y="360" width="40" height="40" as="geometry" />
        </mxCell>
        <mxCell id="OnwZRqGxgUayh9ZLNMnh-45" style="edgeStyle=orthogonalEdgeStyle;rounded=0;orthogonalLoop=1;jettySize=auto;html=1;entryX=0.5;entryY=0;entryDx=0;entryDy=0;" edge="1" parent="1" source="OnwZRqGxgUayh9ZLNMnh-24" target="OnwZRqGxgUayh9ZLNMnh-32">
          <mxGeometry relative="1" as="geometry">
            <Array as="points">
              <mxPoint x="380" y="410" />
              <mxPoint x="410" y="410" />
            </Array>
          </mxGeometry>
        </mxCell>
        <mxCell id="OnwZRqGxgUayh9ZLNMnh-24" value="*" style="ellipse;whiteSpace=wrap;html=1;aspect=fixed;" vertex="1" parent="1">
          <mxGeometry x="360" y="360" width="40" height="40" as="geometry" />
        </mxCell>
        <mxCell id="OnwZRqGxgUayh9ZLNMnh-48" style="edgeStyle=orthogonalEdgeStyle;rounded=0;orthogonalLoop=1;jettySize=auto;html=1;entryX=0.5;entryY=0;entryDx=0;entryDy=0;" edge="1" parent="1" source="OnwZRqGxgUayh9ZLNMnh-25" target="OnwZRqGxgUayh9ZLNMnh-33">
          <mxGeometry relative="1" as="geometry">
            <Array as="points">
              <mxPoint x="500" y="410" />
              <mxPoint x="530" y="410" />
            </Array>
          </mxGeometry>
        </mxCell>
        <mxCell id="OnwZRqGxgUayh9ZLNMnh-25" value="*" style="ellipse;whiteSpace=wrap;html=1;aspect=fixed;" vertex="1" parent="1">
          <mxGeometry x="480" y="360" width="40" height="40" as="geometry" />
        </mxCell>
        <mxCell id="OnwZRqGxgUayh9ZLNMnh-50" style="edgeStyle=orthogonalEdgeStyle;rounded=0;orthogonalLoop=1;jettySize=auto;html=1;entryX=0.5;entryY=0;entryDx=0;entryDy=0;" edge="1" parent="1" source="OnwZRqGxgUayh9ZLNMnh-26" target="OnwZRqGxgUayh9ZLNMnh-34">
          <mxGeometry relative="1" as="geometry">
            <Array as="points">
              <mxPoint x="620" y="410" />
              <mxPoint x="650" y="410" />
            </Array>
          </mxGeometry>
        </mxCell>
        <mxCell id="OnwZRqGxgUayh9ZLNMnh-26" value="*" style="ellipse;whiteSpace=wrap;html=1;aspect=fixed;" vertex="1" parent="1">
          <mxGeometry x="600" y="360" width="40" height="40" as="geometry" />
        </mxCell>
        <mxCell id="OnwZRqGxgUayh9ZLNMnh-44" style="edgeStyle=orthogonalEdgeStyle;rounded=0;orthogonalLoop=1;jettySize=auto;html=1;entryX=0.5;entryY=0;entryDx=0;entryDy=0;" edge="1" parent="1" source="OnwZRqGxgUayh9ZLNMnh-27" target="OnwZRqGxgUayh9ZLNMnh-31">
          <mxGeometry relative="1" as="geometry">
            <Array as="points">
              <mxPoint x="320" y="410" />
              <mxPoint x="290" y="410" />
            </Array>
          </mxGeometry>
        </mxCell>
        <mxCell id="OnwZRqGxgUayh9ZLNMnh-27" value="*" style="ellipse;whiteSpace=wrap;html=1;aspect=fixed;" vertex="1" parent="1">
          <mxGeometry x="300" y="360" width="40" height="40" as="geometry" />
        </mxCell>
        <mxCell id="OnwZRqGxgUayh9ZLNMnh-47" style="edgeStyle=orthogonalEdgeStyle;rounded=0;orthogonalLoop=1;jettySize=auto;html=1;entryX=0.5;entryY=0;entryDx=0;entryDy=0;" edge="1" parent="1" source="OnwZRqGxgUayh9ZLNMnh-28" target="OnwZRqGxgUayh9ZLNMnh-32">
          <mxGeometry relative="1" as="geometry">
            <Array as="points">
              <mxPoint x="440" y="410" />
              <mxPoint x="410" y="410" />
            </Array>
          </mxGeometry>
        </mxCell>
        <mxCell id="OnwZRqGxgUayh9ZLNMnh-28" value="*" style="ellipse;whiteSpace=wrap;html=1;aspect=fixed;" vertex="1" parent="1">
          <mxGeometry x="420" y="360" width="40" height="40" as="geometry" />
        </mxCell>
        <mxCell id="OnwZRqGxgUayh9ZLNMnh-49" style="edgeStyle=orthogonalEdgeStyle;rounded=0;orthogonalLoop=1;jettySize=auto;html=1;" edge="1" parent="1" source="OnwZRqGxgUayh9ZLNMnh-29">
          <mxGeometry relative="1" as="geometry">
            <mxPoint x="530" y="440" as="targetPoint" />
            <Array as="points">
              <mxPoint x="560" y="410" />
              <mxPoint x="530" y="410" />
            </Array>
          </mxGeometry>
        </mxCell>
        <mxCell id="OnwZRqGxgUayh9ZLNMnh-29" value="*" style="ellipse;whiteSpace=wrap;html=1;aspect=fixed;" vertex="1" parent="1">
          <mxGeometry x="540" y="360" width="40" height="40" as="geometry" />
        </mxCell>
        <mxCell id="OnwZRqGxgUayh9ZLNMnh-51" style="edgeStyle=orthogonalEdgeStyle;rounded=0;orthogonalLoop=1;jettySize=auto;html=1;" edge="1" parent="1" source="OnwZRqGxgUayh9ZLNMnh-30">
          <mxGeometry relative="1" as="geometry">
            <mxPoint x="650" y="440" as="targetPoint" />
            <Array as="points">
              <mxPoint x="680" y="410" />
              <mxPoint x="650" y="410" />
            </Array>
          </mxGeometry>
        </mxCell>
        <mxCell id="OnwZRqGxgUayh9ZLNMnh-30" value="*" style="ellipse;whiteSpace=wrap;html=1;aspect=fixed;" vertex="1" parent="1">
          <mxGeometry x="660" y="360" width="40" height="40" as="geometry" />
        </mxCell>
        <mxCell id="OnwZRqGxgUayh9ZLNMnh-53" style="edgeStyle=orthogonalEdgeStyle;rounded=0;orthogonalLoop=1;jettySize=auto;html=1;entryX=0.5;entryY=0;entryDx=0;entryDy=0;" edge="1" parent="1" source="OnwZRqGxgUayh9ZLNMnh-31" target="OnwZRqGxgUayh9ZLNMnh-40">
          <mxGeometry relative="1" as="geometry">
            <Array as="points">
              <mxPoint x="290" y="490" />
              <mxPoint x="350" y="490" />
            </Array>
          </mxGeometry>
        </mxCell>
        <mxCell id="OnwZRqGxgUayh9ZLNMnh-31" value="+" style="ellipse;whiteSpace=wrap;html=1;aspect=fixed;" vertex="1" parent="1">
          <mxGeometry x="270" y="440" width="40" height="40" as="geometry" />
        </mxCell>
        <mxCell id="OnwZRqGxgUayh9ZLNMnh-54" style="edgeStyle=orthogonalEdgeStyle;rounded=0;orthogonalLoop=1;jettySize=auto;html=1;entryX=0.5;entryY=0;entryDx=0;entryDy=0;" edge="1" parent="1" source="OnwZRqGxgUayh9ZLNMnh-32" target="OnwZRqGxgUayh9ZLNMnh-40">
          <mxGeometry relative="1" as="geometry">
            <Array as="points">
              <mxPoint x="410" y="490" />
              <mxPoint x="350" y="490" />
            </Array>
          </mxGeometry>
        </mxCell>
        <mxCell id="OnwZRqGxgUayh9ZLNMnh-32" value="+" style="ellipse;whiteSpace=wrap;html=1;aspect=fixed;" vertex="1" parent="1">
          <mxGeometry x="390" y="440" width="40" height="40" as="geometry" />
        </mxCell>
        <mxCell id="OnwZRqGxgUayh9ZLNMnh-55" style="edgeStyle=orthogonalEdgeStyle;rounded=0;orthogonalLoop=1;jettySize=auto;html=1;entryX=0.5;entryY=0;entryDx=0;entryDy=0;" edge="1" parent="1" source="OnwZRqGxgUayh9ZLNMnh-33" target="OnwZRqGxgUayh9ZLNMnh-41">
          <mxGeometry relative="1" as="geometry">
            <Array as="points">
              <mxPoint x="530" y="490" />
              <mxPoint x="590" y="490" />
            </Array>
          </mxGeometry>
        </mxCell>
        <mxCell id="OnwZRqGxgUayh9ZLNMnh-33" value="+" style="ellipse;whiteSpace=wrap;html=1;aspect=fixed;" vertex="1" parent="1">
          <mxGeometry x="510" y="440" width="40" height="40" as="geometry" />
        </mxCell>
        <mxCell id="OnwZRqGxgUayh9ZLNMnh-56" style="edgeStyle=orthogonalEdgeStyle;rounded=0;orthogonalLoop=1;jettySize=auto;html=1;" edge="1" parent="1" source="OnwZRqGxgUayh9ZLNMnh-34">
          <mxGeometry relative="1" as="geometry">
            <mxPoint x="590" y="520" as="targetPoint" />
            <Array as="points">
              <mxPoint x="650" y="490" />
              <mxPoint x="590" y="490" />
            </Array>
          </mxGeometry>
        </mxCell>
        <mxCell id="OnwZRqGxgUayh9ZLNMnh-34" value="+" style="ellipse;whiteSpace=wrap;html=1;aspect=fixed;" vertex="1" parent="1">
          <mxGeometry x="630" y="440" width="40" height="40" as="geometry" />
        </mxCell>
        <mxCell id="OnwZRqGxgUayh9ZLNMnh-60" style="edgeStyle=orthogonalEdgeStyle;rounded=0;orthogonalLoop=1;jettySize=auto;html=1;" edge="1" parent="1" source="OnwZRqGxgUayh9ZLNMnh-40" target="OnwZRqGxgUayh9ZLNMnh-58">
          <mxGeometry relative="1" as="geometry" />
        </mxCell>
        <mxCell id="OnwZRqGxgUayh9ZLNMnh-96" style="edgeStyle=orthogonalEdgeStyle;rounded=0;orthogonalLoop=1;jettySize=auto;html=1;exitX=0.5;exitY=1;exitDx=0;exitDy=0;entryX=0.5;entryY=0;entryDx=0;entryDy=0;" edge="1" parent="1" source="OnwZRqGxgUayh9ZLNMnh-40" target="OnwZRqGxgUayh9ZLNMnh-94">
          <mxGeometry relative="1" as="geometry">
            <Array as="points">
              <mxPoint x="350" y="570" />
              <mxPoint x="270" y="570" />
            </Array>
          </mxGeometry>
        </mxCell>
        <mxCell id="OnwZRqGxgUayh9ZLNMnh-40" value="-" style="ellipse;whiteSpace=wrap;html=1;aspect=fixed;" vertex="1" parent="1">
          <mxGeometry x="330" y="520" width="40" height="40" as="geometry" />
        </mxCell>
        <mxCell id="OnwZRqGxgUayh9ZLNMnh-61" style="edgeStyle=orthogonalEdgeStyle;rounded=0;orthogonalLoop=1;jettySize=auto;html=1;entryX=0.5;entryY=0;entryDx=0;entryDy=0;" edge="1" parent="1" source="OnwZRqGxgUayh9ZLNMnh-41" target="OnwZRqGxgUayh9ZLNMnh-59">
          <mxGeometry relative="1" as="geometry" />
        </mxCell>
        <mxCell id="OnwZRqGxgUayh9ZLNMnh-97" style="edgeStyle=orthogonalEdgeStyle;rounded=0;orthogonalLoop=1;jettySize=auto;html=1;entryX=0.5;entryY=0;entryDx=0;entryDy=0;" edge="1" parent="1" source="OnwZRqGxgUayh9ZLNMnh-41" target="OnwZRqGxgUayh9ZLNMnh-95">
          <mxGeometry relative="1" as="geometry">
            <Array as="points">
              <mxPoint x="590" y="570" />
              <mxPoint x="670" y="570" />
            </Array>
          </mxGeometry>
        </mxCell>
        <mxCell id="OnwZRqGxgUayh9ZLNMnh-41" value="-" style="ellipse;whiteSpace=wrap;html=1;aspect=fixed;" vertex="1" parent="1">
          <mxGeometry x="570" y="520" width="40" height="40" as="geometry" />
        </mxCell>
        <mxCell id="OnwZRqGxgUayh9ZLNMnh-57" value="" style="endArrow=none;dashed=1;html=1;rounded=0;" edge="1" parent="1">
          <mxGeometry width="50" height="50" relative="1" as="geometry">
            <mxPoint x="200" y="580" as="sourcePoint" />
            <mxPoint x="740" y="580" as="targetPoint" />
          </mxGeometry>
        </mxCell>
        <mxCell id="OnwZRqGxgUayh9ZLNMnh-67" style="edgeStyle=orthogonalEdgeStyle;rounded=0;orthogonalLoop=1;jettySize=auto;html=1;entryX=0.5;entryY=0;entryDx=0;entryDy=0;" edge="1" parent="1" source="OnwZRqGxgUayh9ZLNMnh-58" target="OnwZRqGxgUayh9ZLNMnh-63">
          <mxGeometry relative="1" as="geometry">
            <Array as="points">
              <mxPoint x="350" y="660" />
              <mxPoint x="470" y="660" />
            </Array>
          </mxGeometry>
        </mxCell>
        <mxCell id="OnwZRqGxgUayh9ZLNMnh-58" value="abs" style="ellipse;whiteSpace=wrap;html=1;aspect=fixed;" vertex="1" parent="1">
          <mxGeometry x="330" y="610" width="40" height="40" as="geometry" />
        </mxCell>
        <mxCell id="OnwZRqGxgUayh9ZLNMnh-68" style="edgeStyle=orthogonalEdgeStyle;rounded=0;orthogonalLoop=1;jettySize=auto;html=1;" edge="1" parent="1" source="OnwZRqGxgUayh9ZLNMnh-63">
          <mxGeometry relative="1" as="geometry">
            <mxPoint x="470" y="760" as="targetPoint" />
            <Array as="points">
              <mxPoint x="470" y="720" />
            </Array>
          </mxGeometry>
        </mxCell>
        <mxCell id="OnwZRqGxgUayh9ZLNMnh-59" value="abs" style="ellipse;whiteSpace=wrap;html=1;aspect=fixed;" vertex="1" parent="1">
          <mxGeometry x="570" y="610" width="40" height="40" as="geometry" />
        </mxCell>
        <mxCell id="OnwZRqGxgUayh9ZLNMnh-69" value="" style="endArrow=none;dashed=1;html=1;rounded=0;" edge="1" parent="1">
          <mxGeometry width="50" height="50" relative="1" as="geometry">
            <mxPoint x="200" y="720" as="sourcePoint" />
            <mxPoint x="740" y="720" as="targetPoint" />
          </mxGeometry>
        </mxCell>
        <mxCell id="OnwZRqGxgUayh9ZLNMnh-70" value="" style="edgeStyle=orthogonalEdgeStyle;rounded=0;orthogonalLoop=1;jettySize=auto;html=1;" edge="1" parent="1" source="OnwZRqGxgUayh9ZLNMnh-59" target="OnwZRqGxgUayh9ZLNMnh-63">
          <mxGeometry relative="1" as="geometry">
            <mxPoint x="470" y="710" as="targetPoint" />
            <mxPoint x="590" y="650" as="sourcePoint" />
            <Array as="points">
              <mxPoint x="590" y="660" />
              <mxPoint x="470" y="660" />
            </Array>
          </mxGeometry>
        </mxCell>
        <mxCell id="OnwZRqGxgUayh9ZLNMnh-72" style="edgeStyle=orthogonalEdgeStyle;rounded=0;orthogonalLoop=1;jettySize=auto;html=1;" edge="1" parent="1" source="OnwZRqGxgUayh9ZLNMnh-63">
          <mxGeometry relative="1" as="geometry">
            <mxPoint x="390" y="800" as="targetPoint" />
            <Array as="points">
              <mxPoint x="470" y="780" />
              <mxPoint x="390" y="780" />
              <mxPoint x="390" y="800" />
            </Array>
          </mxGeometry>
        </mxCell>
        <mxCell id="OnwZRqGxgUayh9ZLNMnh-75" style="edgeStyle=orthogonalEdgeStyle;rounded=0;orthogonalLoop=1;jettySize=auto;html=1;" edge="1" parent="1" source="OnwZRqGxgUayh9ZLNMnh-63">
          <mxGeometry relative="1" as="geometry">
            <mxPoint x="550" y="800" as="targetPoint" />
            <Array as="points">
              <mxPoint x="470" y="780" />
              <mxPoint x="550" y="780" />
              <mxPoint x="550" y="800" />
            </Array>
          </mxGeometry>
        </mxCell>
        <mxCell id="OnwZRqGxgUayh9ZLNMnh-63" value="+" style="ellipse;whiteSpace=wrap;html=1;aspect=fixed;" vertex="1" parent="1">
          <mxGeometry x="450" y="730" width="40" height="40" as="geometry" />
        </mxCell>
        <mxCell id="OnwZRqGxgUayh9ZLNMnh-71" value="" style="endArrow=none;dashed=1;html=1;rounded=0;" edge="1" parent="1">
          <mxGeometry width="50" height="50" relative="1" as="geometry">
            <mxPoint x="200" y="790" as="sourcePoint" />
            <mxPoint x="740" y="790" as="targetPoint" />
          </mxGeometry>
        </mxCell>
        <mxCell id="OnwZRqGxgUayh9ZLNMnh-81" value="&lt;div&gt;minMat=k&lt;/div&gt;&lt;div&gt;minDet=det_1N[k]&lt;/div&gt;" style="rounded=0;whiteSpace=wrap;html=1;" vertex="1" parent="1">
          <mxGeometry x="337.5" y="880" width="105" height="30" as="geometry" />
        </mxCell>
        <mxCell id="OnwZRqGxgUayh9ZLNMnh-82" value="&lt;div&gt;maxMat=k&lt;/div&gt;&lt;div&gt;&amp;nbsp;maxDet=det_1N[k]&lt;/div&gt;" style="rounded=0;whiteSpace=wrap;html=1;" vertex="1" parent="1">
          <mxGeometry x="497.5" y="880" width="105" height="30" as="geometry" />
        </mxCell>
        <mxCell id="OnwZRqGxgUayh9ZLNMnh-90" style="edgeStyle=orthogonalEdgeStyle;rounded=0;orthogonalLoop=1;jettySize=auto;html=1;entryX=0.5;entryY=0;entryDx=0;entryDy=0;" edge="1" parent="1" source="OnwZRqGxgUayh9ZLNMnh-86" target="OnwZRqGxgUayh9ZLNMnh-81">
          <mxGeometry relative="1" as="geometry" />
        </mxCell>
        <mxCell id="OnwZRqGxgUayh9ZLNMnh-86" value="det_1N [k]&amp;lt;minDet" style="rhombus;whiteSpace=wrap;html=1;" vertex="1" parent="1">
          <mxGeometry x="325" y="800" width="130" height="60" as="geometry" />
        </mxCell>
        <mxCell id="OnwZRqGxgUayh9ZLNMnh-91" style="edgeStyle=orthogonalEdgeStyle;rounded=0;orthogonalLoop=1;jettySize=auto;html=1;" edge="1" parent="1" source="OnwZRqGxgUayh9ZLNMnh-88" target="OnwZRqGxgUayh9ZLNMnh-82">
          <mxGeometry relative="1" as="geometry" />
        </mxCell>
        <mxCell id="OnwZRqGxgUayh9ZLNMnh-88" value="det_1N [k]&amp;gt;maxDet" style="rhombus;whiteSpace=wrap;html=1;" vertex="1" parent="1">
          <mxGeometry x="485" y="800" width="130" height="60" as="geometry" />
        </mxCell>
        <mxCell id="OnwZRqGxgUayh9ZLNMnh-92" value="&lt;font style=&quot;font-size: 8px;&quot;&gt;Sim&lt;/font&gt;" style="text;html=1;align=center;verticalAlign=middle;whiteSpace=wrap;rounded=0;" vertex="1" parent="1">
          <mxGeometry x="560" y="860" width="20" height="10" as="geometry" />
        </mxCell>
        <mxCell id="OnwZRqGxgUayh9ZLNMnh-93" value="&lt;font style=&quot;font-size: 8px;&quot;&gt;Sim&lt;/font&gt;" style="text;html=1;align=center;verticalAlign=middle;whiteSpace=wrap;rounded=0;" vertex="1" parent="1">
          <mxGeometry x="400" y="860" width="20" height="10" as="geometry" />
        </mxCell>
        <mxCell id="OnwZRqGxgUayh9ZLNMnh-102" style="edgeStyle=orthogonalEdgeStyle;rounded=0;orthogonalLoop=1;jettySize=auto;html=1;exitX=0.5;exitY=1;exitDx=0;exitDy=0;entryX=0.5;entryY=0;entryDx=0;entryDy=0;" edge="1" parent="1" source="OnwZRqGxgUayh9ZLNMnh-94" target="OnwZRqGxgUayh9ZLNMnh-99">
          <mxGeometry relative="1" as="geometry" />
        </mxCell>
        <mxCell id="OnwZRqGxgUayh9ZLNMnh-94" value="+" style="ellipse;whiteSpace=wrap;html=1;aspect=fixed;" vertex="1" parent="1">
          <mxGeometry x="250" y="610" width="40" height="40" as="geometry" />
        </mxCell>
        <mxCell id="OnwZRqGxgUayh9ZLNMnh-103" style="edgeStyle=orthogonalEdgeStyle;rounded=0;orthogonalLoop=1;jettySize=auto;html=1;exitX=0.5;exitY=1;exitDx=0;exitDy=0;entryX=0.5;entryY=0;entryDx=0;entryDy=0;" edge="1" parent="1" source="OnwZRqGxgUayh9ZLNMnh-95" target="OnwZRqGxgUayh9ZLNMnh-100">
          <mxGeometry relative="1" as="geometry" />
        </mxCell>
        <mxCell id="OnwZRqGxgUayh9ZLNMnh-95" value="+" style="ellipse;whiteSpace=wrap;html=1;aspect=fixed;" vertex="1" parent="1">
          <mxGeometry x="650" y="610" width="40" height="40" as="geometry" />
        </mxCell>
        <mxCell id="OnwZRqGxgUayh9ZLNMnh-98" value="1" style="strokeWidth=1;shadow=0;dashed=0;align=center;html=1;shape=mxgraph.mockup.misc.ruler2;dx=100;rulerOrient=down;unitSize=10;fontColor=#999999;spacingLeft=96;align=left;verticalAlign=middle;spacingBottom=10;spacingTop=0;spacingRight=0;spacing=0;strokeColor=#999999;" vertex="1" parent="1">
          <mxGeometry x="80" y="570" width="40" height="30" as="geometry" />
        </mxCell>
        <mxCell id="OnwZRqGxgUayh9ZLNMnh-104" style="edgeStyle=orthogonalEdgeStyle;rounded=0;orthogonalLoop=1;jettySize=auto;html=1;entryX=0.5;entryY=0;entryDx=0;entryDy=0;" edge="1" parent="1" source="OnwZRqGxgUayh9ZLNMnh-99" target="OnwZRqGxgUayh9ZLNMnh-94">
          <mxGeometry relative="1" as="geometry">
            <Array as="points">
              <mxPoint x="270" y="700" />
              <mxPoint x="220" y="700" />
              <mxPoint x="220" y="570" />
              <mxPoint x="270" y="570" />
            </Array>
          </mxGeometry>
        </mxCell>
        <mxCell id="OnwZRqGxgUayh9ZLNMnh-99" value="sumDetR" style="rounded=0;whiteSpace=wrap;html=1;" vertex="1" parent="1">
          <mxGeometry x="230" y="670" width="80" height="20" as="geometry" />
        </mxCell>
        <mxCell id="OnwZRqGxgUayh9ZLNMnh-105" style="edgeStyle=orthogonalEdgeStyle;rounded=0;orthogonalLoop=1;jettySize=auto;html=1;entryX=0.5;entryY=0;entryDx=0;entryDy=0;" edge="1" parent="1" source="OnwZRqGxgUayh9ZLNMnh-100" target="OnwZRqGxgUayh9ZLNMnh-95">
          <mxGeometry relative="1" as="geometry">
            <Array as="points">
              <mxPoint x="670" y="700" />
              <mxPoint x="720" y="700" />
              <mxPoint x="720" y="570" />
              <mxPoint x="670" y="570" />
            </Array>
          </mxGeometry>
        </mxCell>
        <mxCell id="OnwZRqGxgUayh9ZLNMnh-100" value="sumDetI" style="rounded=0;whiteSpace=wrap;html=1;" vertex="1" parent="1">
          <mxGeometry x="631.09" y="670" width="77.81" height="20" as="geometry" />
        </mxCell>
        <mxCell id="OnwZRqGxgUayh9ZLNMnh-106" value="" style="triangle;whiteSpace=wrap;html=1;" vertex="1" parent="1">
          <mxGeometry x="230" y="675" width="10" height="10" as="geometry" />
        </mxCell>
        <mxCell id="OnwZRqGxgUayh9ZLNMnh-107" value="" style="triangle;whiteSpace=wrap;html=1;" vertex="1" parent="1">
          <mxGeometry x="631.09" y="675" width="10" height="10" as="geometry" />
        </mxCell>
      </root>
    </mxGraphModel>
  </diagram>
</mxfile>
